<svg width="25" height="25" viewBox="0 0 25 25" fill="none" xmlns="http://www.w3.org/2000/svg">
<path d="M11.0364 3.7428L12.077 2.70217C12.5176 2.26155 13.2301 2.26155 13.6661 2.70217L22.7786 11.81C23.2192 12.2506 23.2192 12.9631 22.7786 13.399L13.6661 22.5115C13.2254 22.9522 12.5129 22.9522 12.077 22.5115L11.0364 21.4709C10.5911 21.0256 10.6004 20.299 11.0551 19.8631L16.7036 14.4819H3.23169C2.60825 14.4819 2.10669 13.9803 2.10669 13.3569V11.8569C2.10669 11.2334 2.60825 10.7319 3.23169 10.7319H16.7036L11.0551 5.35061C10.5958 4.91467 10.5864 4.18811 11.0364 3.7428Z" fill="#848484"/>
</svg>
