<svg width="544" height="456" viewBox="0 0 544 456" fill="none" xmlns="http://www.w3.org/2000/svg">
<path d="M0.33252 405.223V0.331909H543.634V405.223H536.984V6.96946H6.98289V405.223H0.33252Z" fill="black" stroke="black" stroke-miterlimit="10"/>
<path d="M370.093 398.585H0.33252V405.223H370.093V398.585Z" fill="black" stroke="black"/>
<path d="M543.634 398.585H522.386V405.223H543.634V398.585Z" fill="black" stroke="black"/>
<path d="M423.296 398.585H370.093V401.904H423.296V398.585Z" fill="white" stroke="black"/>
<path d="M423.296 401.904C423.296 431.229 399.474 455.004 370.093 455.004V401.904" stroke="black" stroke-miterlimit="10"/>
<path d="M522.386 398.585H455.883V405.223H522.386V398.585Z" fill="white" stroke="black"/>
<path d="M489.134 401.904H455.883V402.568H489.134V401.904Z" fill="white" stroke="black"/>
<path d="M505.76 401.24H472.509V401.904H505.76V401.24Z" fill="white" stroke="black"/>
<path d="M455.883 398.585H423.296V405.223H455.883V398.585Z" fill="black" stroke="black"/>
<path d="M427.951 6.96948H361.448V0.331928H427.951V6.96948Z" fill="white" stroke="black"/>
<path d="M361.448 3.65063H427.951" stroke="black" stroke-miterlimit="10"/>
<path d="M145.976 6.97607H79.4719V0.33852H145.976V6.97607Z" fill="white" stroke="black"/>
<path d="M79.4719 3.65723H145.976" stroke="black" stroke-miterlimit="10"/>
<path d="M216.469 6.97607H149.966V0.33852H216.469V6.97607Z" fill="white" stroke="black"/>
<path d="M149.966 3.65723H216.469" stroke="black" stroke-miterlimit="10"/>
<path d="M286.963 6.97607H220.46V0.33852H286.963V6.97607Z" fill="white" stroke="black"/>
<path d="M220.46 3.65723H286.963" stroke="black" stroke-miterlimit="10"/>
<path d="M357.457 6.97607H290.954V0.33852H357.457V6.97607Z" fill="white" stroke="black"/>
<path d="M290.954 3.65723H357.457" stroke="black" stroke-miterlimit="10"/>
<path d="M498.445 6.96948H431.941V0.331928H498.445V6.96948Z" fill="white" stroke="black"/>
<path d="M431.941 3.65063H498.445" stroke="black" stroke-miterlimit="10"/>
<path d="M65.0879 173.378L78.9557 184.141C81.0577 185.657 82.064 188.276 81.5138 190.805C77.0653 196.897 71.6903 202.262 65.5864 206.702C63.0517 207.251 60.4277 206.247 58.9135 204.144L48.1306 190.303C47.0585 188.651 47.4817 186.135 49.1558 184.155L58.9229 174.406C60.9074 172.735 63.4279 172.313 65.0879 173.378ZM48.7373 184.572L42.8403 183.962L48.7373 184.572ZM51.6716 181.644L47.0773 178.814L51.6716 181.644ZM55.1891 178.133L52.6498 173.252L55.1891 178.133ZM58.1235 175.204L57.8037 169.028L58.1235 175.204ZM58.8571 168.324C52.5839 172.904 47.0209 178.457 42.4312 184.718L38.0296 185.018C43.5739 176.678 50.8017 169.464 59.1581 163.931L58.8571 168.324Z" fill="white"/>
<path d="M48.7373 184.572L42.8403 183.962M51.6716 181.644L47.0773 178.814M55.1891 178.133L52.6498 173.252M58.1235 175.204L57.8037 169.028M65.0879 173.378L78.9557 184.141C81.0577 185.657 82.064 188.276 81.5138 190.805C77.0653 196.897 71.6903 202.262 65.5864 206.702C63.0517 207.251 60.4277 206.247 58.9135 204.144L48.1306 190.303C47.0585 188.651 47.4817 186.135 49.1558 184.155L58.9229 174.406C60.9074 172.735 63.4279 172.313 65.0879 173.378ZM58.8571 168.324C52.5839 172.904 47.0209 178.457 42.4312 184.718L38.0296 185.018C43.5739 176.678 50.8017 169.464 59.1581 163.931L58.8571 168.324Z" stroke="black" stroke-miterlimit="10" stroke-linejoin="round"/>
<path d="M98.9316 139.6L112.799 150.362C114.901 151.878 115.908 154.488 115.362 157.022C110.909 163.119 105.534 168.483 99.4301 172.923C96.8907 173.468 94.2714 172.468 92.7572 170.366L81.9744 156.524C80.9069 154.868 81.3254 152.357 83.0042 150.371L92.7666 140.628C94.7511 138.957 97.2717 138.534 98.9316 139.6ZM82.581 150.794L76.684 150.184L82.581 150.794ZM85.5154 147.865L80.921 145.035L85.5154 147.865ZM89.0375 144.35L86.4935 139.473L89.0375 144.35ZM91.9719 141.421L91.6474 135.249L91.9719 141.421ZM92.7008 134.545C86.4276 139.126 80.8646 144.678 76.2749 150.939L71.8686 151.235C77.4176 142.899 84.6454 135.686 92.9971 130.147L92.7008 134.545Z" fill="white"/>
<path d="M82.581 150.794L76.684 150.184M85.5154 147.865L80.921 145.035M89.0375 144.35L86.4935 139.473M91.9719 141.421L91.6474 135.249M98.9316 139.6L112.799 150.362C114.901 151.878 115.908 154.488 115.362 157.022C110.909 163.119 105.534 168.483 99.4301 172.923C96.8907 173.468 94.2714 172.468 92.7572 170.366L81.9744 156.524C80.9069 154.868 81.3254 152.357 83.0042 150.371L92.7666 140.628C94.7511 138.957 97.2716 138.534 98.9316 139.6ZM92.7008 134.545C86.4276 139.126 80.8646 144.678 76.2749 150.939L71.8686 151.235C77.4176 142.899 84.6454 135.686 92.9971 130.147L92.7008 134.545Z" stroke="black" stroke-miterlimit="10" stroke-linejoin="round"/>
<path d="M83.0569 175.038L49.1987 208.831L68.0088 227.605L101.867 193.812L83.0569 175.038Z" fill="white" stroke="black"/>
<path d="M52.9607 205.076L49.1987 208.831L51.8321 211.46L55.5942 207.705L52.9607 205.076Z" stroke="black"/>
<path d="M69.1375 221.222L65.3755 224.977L68.0089 227.605L71.7709 223.85L69.1375 221.222Z" stroke="black"/>
<path d="M83.0521 175.043L79.29 178.798L81.9234 181.426L85.6855 177.671L83.0521 175.043Z" stroke="black"/>
<path d="M99.2288 191.189L95.4668 194.943L98.1002 197.572L101.862 193.817L99.2288 191.189Z" stroke="black"/>
<path d="M116.974 141.26L83.1157 175.053L101.926 193.827L135.784 160.034L116.974 141.26Z" fill="white" stroke="black"/>
<path d="M86.8777 171.298L83.1157 175.053L85.7491 177.681L89.5111 173.926L86.8777 171.298Z" stroke="black"/>
<path d="M103.054 187.444L99.2925 191.198L101.926 193.827L105.688 190.072L103.054 187.444Z" stroke="black"/>
<path d="M116.969 141.265L113.207 145.019L115.84 147.648L119.602 143.893L116.969 141.265Z" stroke="black"/>
<path d="M133.146 157.41L129.384 161.165L132.017 163.793L135.779 160.038L133.146 157.41Z" stroke="black"/>
<path d="M225.048 228.501L242.479 226.324C245.039 225.905 247.606 227.047 249.01 229.224C250.18 236.671 250.18 244.258 249.01 251.706C247.606 253.889 245.039 255.024 242.479 254.613L225.048 252.436C223.12 252.017 221.637 249.94 221.417 247.358V233.578C221.637 230.99 223.12 228.912 225.048 228.501ZM221.417 247.949L216.815 251.679L221.417 247.949ZM221.417 243.807L216.164 245.048L221.417 243.807ZM221.417 238.842L216.164 237.189L221.417 238.842ZM221.417 234.7L216.815 230.558L221.417 234.7ZM217.061 229.317C215.871 236.99 215.871 244.836 217.061 252.509L214.162 255.821C212.173 246.01 212.173 235.815 214.162 226.005L217.061 229.317Z" fill="white"/>
<path d="M221.417 247.949L216.815 251.679M221.417 243.807L216.164 245.048M221.417 238.842L216.164 237.189M221.417 234.7L216.815 230.558M225.048 228.501L242.479 226.324C245.039 225.905 247.606 227.047 249.01 229.224C250.18 236.671 250.18 244.258 249.01 251.706C247.606 253.889 245.039 255.024 242.479 254.613L225.048 252.436C223.12 252.017 221.637 249.94 221.417 247.358V233.578C221.637 230.99 223.12 228.912 225.048 228.501ZM217.061 229.317C215.871 236.99 215.871 244.836 217.061 252.509L214.162 255.821C212.173 246.01 212.173 235.815 214.162 226.005L217.061 229.317Z" stroke="black" stroke-miterlimit="10" stroke-linejoin="round"/>
<path d="M225.048 180.644L242.472 178.467C245.033 178.049 247.6 179.19 249.009 181.367C250.18 188.815 250.18 196.401 249.009 203.849C247.6 206.032 245.033 207.167 242.472 206.756L225.048 204.579C223.12 204.161 221.637 202.083 221.417 199.501V185.722C221.637 183.133 223.12 181.055 225.048 180.644ZM221.417 200.092L216.815 203.822L221.417 200.092ZM221.417 195.95L216.157 197.191L221.417 195.95ZM221.417 190.985L216.157 189.332L221.417 190.985ZM221.417 186.843L216.815 182.701L221.417 186.843ZM217.061 181.46C215.864 189.133 215.864 196.979 217.061 204.652L214.155 207.964C212.166 198.154 212.166 187.958 214.155 178.148L217.061 181.46Z" fill="white"/>
<path d="M221.417 200.092L216.815 203.822M221.417 195.95L216.157 197.191M221.417 190.985L216.157 189.332M221.417 186.843L216.815 182.701M225.048 180.644L242.472 178.467C245.033 178.049 247.6 179.19 249.009 181.367C250.18 188.815 250.18 196.401 249.009 203.849C247.6 206.032 245.033 207.167 242.472 206.756L225.048 204.579C223.12 204.161 221.637 202.083 221.417 199.501V185.722C221.637 183.133 223.12 181.055 225.048 180.644ZM217.061 181.46C215.864 189.133 215.864 196.979 217.061 204.652L214.155 207.964C212.166 198.154 212.166 187.958 214.155 178.148L217.061 181.46Z" stroke="black" stroke-miterlimit="10" stroke-linejoin="round"/>
<path d="M238.961 216.965V264.755H265.562V216.965H238.961Z" fill="white" stroke="black"/>
<path d="M238.961 259.445V264.755H242.685V259.445H238.961Z" stroke="black"/>
<path d="M261.838 259.445V264.755H265.562V259.445H261.838Z" stroke="black"/>
<path d="M238.961 216.971V222.281H242.685V216.971H238.961Z" stroke="black"/>
<path d="M261.838 216.971V222.281H265.562V216.971H261.838Z" stroke="black"/>
<path d="M238.961 169.174V216.965H265.562V169.174H238.961Z" fill="white" stroke="black"/>
<path d="M238.961 211.655V216.965H242.685V211.655H238.961Z" stroke="black"/>
<path d="M261.838 211.655V216.965H265.562V211.655H261.838Z" stroke="black"/>
<path d="M238.961 169.181V174.491H242.685V169.181H238.961Z" stroke="black"/>
<path d="M261.838 169.181V174.491H265.562V169.181H261.838Z" stroke="black"/>
<path d="M306.974 205.375L289.55 207.552C286.99 207.964 284.423 206.829 283.013 204.652C281.843 197.198 281.843 189.618 283.013 182.164C284.423 179.987 286.99 178.852 289.55 179.263L306.974 181.44C308.903 181.858 310.386 183.929 310.605 186.518V200.298C310.386 202.886 308.903 204.957 306.974 205.375ZM310.605 185.921L315.207 182.197L310.605 185.921ZM310.605 190.063L315.866 188.821L310.605 190.063ZM310.605 195.034L315.866 196.687L310.605 195.034ZM310.605 199.176L315.207 203.318L310.605 199.176ZM314.961 204.559C316.158 196.886 316.158 189.034 314.961 181.367L317.868 178.055C319.856 187.865 319.856 198.061 317.868 207.871L314.961 204.559Z" fill="white"/>
<path d="M310.605 185.921L315.207 182.197M310.605 190.063L315.866 188.821M310.605 195.034L315.866 196.687M310.605 199.176L315.207 203.318M306.974 205.375L289.55 207.552C286.99 207.964 284.423 206.829 283.013 204.652C281.843 197.198 281.843 189.618 283.013 182.164C284.423 179.987 286.99 178.852 289.55 179.263L306.974 181.44C308.903 181.858 310.386 183.929 310.605 186.518V200.298C310.386 202.886 308.903 204.957 306.974 205.375ZM314.961 204.559C316.158 196.886 316.158 189.034 314.961 181.367L317.868 178.055C319.856 187.865 319.856 198.061 317.868 207.871L314.961 204.559Z" stroke="black" stroke-miterlimit="10" stroke-linejoin="round"/>
<path d="M306.974 253.232L289.543 255.409C286.983 255.821 284.416 254.686 283.013 252.509C281.842 245.055 281.842 237.475 283.013 230.021C284.416 227.843 286.983 226.708 289.543 227.12L306.974 229.297C308.903 229.715 310.386 231.786 310.605 234.375V248.154C310.386 250.743 308.903 252.814 306.974 253.232ZM310.605 233.777L315.207 230.054L310.605 233.777ZM310.605 237.919L315.859 236.678L310.605 237.919ZM310.605 242.891L315.859 244.544L310.605 242.891ZM310.605 247.033L315.207 251.174L310.605 247.033ZM314.961 252.416C316.152 244.743 316.152 236.89 314.961 229.224L317.861 225.912C319.849 235.722 319.849 245.918 317.861 255.728L314.961 252.416Z" fill="white"/>
<path d="M310.605 233.777L315.207 230.054M310.605 237.919L315.859 236.678M310.605 242.891L315.859 244.544M310.605 247.033L315.207 251.174M306.974 253.232L289.543 255.409C286.983 255.821 284.416 254.686 283.013 252.509C281.842 245.055 281.842 237.475 283.013 230.021C284.416 227.843 286.983 226.708 289.543 227.12L306.974 229.297C308.903 229.715 310.386 231.786 310.605 234.375V248.154C310.386 250.743 308.903 252.814 306.974 253.232ZM314.961 252.416C316.152 244.743 316.152 236.89 314.961 229.224L317.861 225.912C319.849 235.722 319.849 245.918 317.861 255.728L314.961 252.416Z" stroke="black" stroke-miterlimit="10" stroke-linejoin="round"/>
<path d="M293.062 216.971V169.181H266.46V216.971H293.062Z" fill="white" stroke="black"/>
<path d="M293.062 174.491V169.181H289.338V174.491H293.062Z" stroke="black"/>
<path d="M270.184 174.491V169.181H266.46V174.491H270.184Z" stroke="black"/>
<path d="M293.062 216.971V211.661H289.338V216.971H293.062Z" stroke="black"/>
<path d="M270.184 216.971V211.661H266.46V216.971H270.184Z" stroke="black"/>
<path d="M293.062 264.762V216.971H266.46V264.762H293.062Z" fill="white" stroke="black"/>
<path d="M293.062 222.281V216.971H289.338V222.281H293.062Z" stroke="black"/>
<path d="M270.184 222.281V216.971H266.46V222.281H270.184Z" stroke="black"/>
<path d="M293.062 264.762V259.452H289.338V264.762H293.062Z" stroke="black"/>
<path d="M270.184 264.762V259.452H266.46V264.762H270.184Z" stroke="black"/>
<path d="M225.049 278.05L242.473 275.873C245.04 275.455 247.6 276.596 249.01 278.773C250.18 286.221 250.18 293.807 249.01 301.261C247.6 303.439 245.04 304.574 242.473 304.162L225.049 301.985C223.12 301.567 221.637 299.489 221.418 296.907V283.128C221.637 280.539 223.12 278.468 225.049 278.05ZM221.418 297.505L216.815 301.228L221.418 297.505ZM221.418 293.363L216.164 294.604L221.418 293.363ZM221.418 288.391L216.164 286.738L221.418 288.391ZM221.418 284.249L216.815 280.108L221.418 284.249ZM217.062 278.866C215.864 286.539 215.864 294.385 217.062 302.058L214.155 305.37C212.173 295.56 212.173 285.365 214.155 275.554L217.062 278.866Z" fill="white"/>
<path d="M221.418 297.505L216.815 301.228M221.418 293.363L216.164 294.604M221.418 288.391L216.164 286.738M221.418 284.249L216.815 280.108M225.049 278.05L242.473 275.873C245.04 275.455 247.6 276.596 249.01 278.773C250.18 286.221 250.18 293.807 249.01 301.261C247.6 303.439 245.04 304.574 242.473 304.162L225.049 301.985C223.12 301.567 221.637 299.489 221.418 296.907V283.128C221.637 280.539 223.12 278.468 225.049 278.05ZM217.062 278.866C215.864 286.539 215.864 294.385 217.062 302.058L214.155 305.37C212.173 295.56 212.173 285.365 214.155 275.554L217.062 278.866Z" stroke="black" stroke-miterlimit="10" stroke-linejoin="round"/>
<path d="M238.961 266.587V314.377H265.562V266.587H238.961Z" fill="white" stroke="black"/>
<path d="M238.961 309.067V314.377H242.685V309.067H238.961Z" stroke="black"/>
<path d="M261.838 309.067V314.377H265.562V309.067H261.838Z" stroke="black"/>
<path d="M238.961 266.587V271.897H242.685V266.587H238.961Z" stroke="black"/>
<path d="M261.838 266.587V271.897H265.562V266.587H261.838Z" stroke="black"/>
<path d="M306.974 302.781L289.55 304.959C286.983 305.37 284.423 304.235 283.013 302.058C281.842 294.604 281.842 287.017 283.013 279.57C284.423 277.393 286.983 276.251 289.55 276.669L306.974 278.846C308.903 279.265 310.386 281.335 310.605 283.924V297.704C310.386 300.286 308.903 302.363 306.974 302.781ZM310.605 283.327L315.207 279.596L310.605 283.327ZM310.605 287.469L315.859 286.227L310.605 287.469ZM310.605 292.44L315.859 294.093L310.605 292.44ZM310.605 296.582L315.207 300.724L310.605 296.582ZM314.961 301.958C316.158 294.292 316.158 286.44 314.961 278.773L317.867 275.455C319.849 285.272 319.849 295.467 317.867 305.277L314.961 301.958Z" fill="white"/>
<path d="M310.605 283.327L315.207 279.596M310.605 287.469L315.859 286.227M310.605 292.44L315.859 294.093M310.605 296.582L315.207 300.724M306.974 302.781L289.55 304.959C286.983 305.37 284.423 304.235 283.013 302.058C281.842 294.604 281.842 287.017 283.013 279.57C284.423 277.393 286.983 276.251 289.55 276.669L306.974 278.846C308.903 279.265 310.386 281.335 310.605 283.924V297.704C310.386 300.286 308.903 302.363 306.974 302.781ZM314.961 301.958C316.158 294.292 316.158 286.44 314.961 278.773L317.867 275.455C319.849 285.272 319.849 295.467 317.867 305.277L314.961 301.958Z" stroke="black" stroke-miterlimit="10" stroke-linejoin="round"/>
<path d="M293.062 314.377V266.587H266.46V314.377H293.062Z" fill="white" stroke="black"/>
<path d="M293.062 271.897V266.587H289.338V271.897H293.062Z" stroke="black"/>
<path d="M270.184 271.897V266.587H266.46V271.897H270.184Z" stroke="black"/>
<path d="M293.062 314.377V309.067H289.338V314.377H293.062Z" stroke="black"/>
<path d="M270.184 314.377V309.067H266.46V314.377H270.184Z" stroke="black"/>
<path d="M226.292 76.547L243.716 74.3699C246.276 73.9517 248.843 75.0934 250.253 77.2705C251.424 84.7179 251.424 92.3046 250.253 99.7585C248.843 101.936 246.276 103.071 243.716 102.659L226.292 100.482C224.363 100.064 222.88 97.9863 222.661 95.4043V81.6248C222.88 79.0361 224.363 76.9652 226.292 76.547ZM222.661 96.0017L218.059 99.7254L222.661 96.0017ZM222.661 91.8599L217.4 93.0944L222.661 91.8599ZM222.661 86.8883L217.4 85.2356L222.661 86.8883ZM222.661 82.7465L218.059 78.6047L222.661 82.7465ZM218.305 77.3634C217.108 85.0364 217.108 92.882 218.305 100.555L215.399 103.867C213.41 94.0569 213.41 83.8616 215.399 74.0513L218.305 77.3634Z" fill="white"/>
<path d="M222.661 96.0017L218.059 99.7254M222.661 91.8599L217.4 93.0944M222.661 86.8883L217.4 85.2356M222.661 82.7465L218.059 78.6047M226.292 76.547L243.716 74.3699C246.276 73.9517 248.843 75.0934 250.253 77.2705C251.424 84.7179 251.424 92.3046 250.253 99.7585C248.843 101.936 246.276 103.071 243.716 102.659L226.292 100.482C224.363 100.064 222.88 97.9863 222.661 95.4043V81.6248C222.88 79.0361 224.363 76.9652 226.292 76.547ZM218.305 77.3634C217.108 85.0364 217.108 92.882 218.305 100.555L215.399 103.867C213.41 94.0569 213.41 83.8616 215.399 74.0513L218.305 77.3634Z" stroke="black" stroke-miterlimit="10" stroke-linejoin="round"/>
<path d="M240.205 65.0109V112.801H266.806V65.0109H240.205Z" fill="white" stroke="black"/>
<path d="M240.205 107.491V112.801H243.929V107.491H240.205Z" stroke="black"/>
<path d="M263.082 107.491V112.801H266.806V107.491H263.082Z" stroke="black"/>
<path d="M240.205 65.0109V70.321H243.929V65.0109H240.205Z" stroke="black"/>
<path d="M263.082 65.0109V70.321H266.806V65.0109H263.082Z" stroke="black"/>
<path d="M306.229 101.272L288.806 103.449C286.245 103.867 283.678 102.726 282.268 100.548C281.098 93.1011 281.098 85.5144 282.268 78.0671C283.678 75.8899 286.245 74.7483 288.806 75.1664L306.229 77.3369C308.158 77.7551 309.641 79.8327 309.861 82.4147V96.2009C309.641 98.7829 308.158 100.86 306.229 101.272ZM309.861 81.8239L314.463 78.0936L309.861 81.8239ZM309.861 85.9657L315.121 84.7245L309.861 85.9657ZM309.861 90.9306L315.121 92.5834L309.861 90.9306ZM309.861 95.0725L314.463 99.2143L309.861 95.0725ZM314.217 100.456C315.414 92.7892 315.414 84.9369 314.217 77.2639L317.123 73.9518C319.105 83.7621 319.105 93.9574 317.123 103.768L314.217 100.456Z" fill="white"/>
<path d="M309.861 81.8239L314.463 78.0936M309.861 85.9657L315.121 84.7245M309.861 90.9306L315.121 92.5834M309.861 95.0725L314.463 99.2143M306.229 101.272L288.806 103.449C286.245 103.867 283.678 102.726 282.268 100.548C281.098 93.1011 281.098 85.5144 282.268 78.0671C283.678 75.8899 286.245 74.7483 288.806 75.1664L306.229 77.3369C308.158 77.7551 309.641 79.8327 309.861 82.4147V96.2009C309.641 98.7829 308.158 100.86 306.229 101.272ZM314.217 100.456C315.414 92.7892 315.414 84.9369 314.217 77.2639L317.123 73.9518C319.105 83.7621 319.105 93.9574 317.123 103.768L314.217 100.456Z" stroke="black" stroke-miterlimit="10" stroke-linejoin="round"/>
<path d="M292.317 112.795V65.0043H265.715V112.795H292.317Z" fill="white" stroke="black"/>
<path d="M292.317 70.3144V65.0043H288.593V70.3144H292.317Z" stroke="black"/>
<path d="M269.439 70.3144V65.0043H265.715V70.3144H269.439Z" stroke="black"/>
<path d="M292.317 112.795V107.485H288.593V112.795H292.317Z" stroke="black"/>
<path d="M269.439 112.795V107.485H265.715V112.795H269.439Z" stroke="black"/>
<path d="M425.384 157.092L414.601 170.933C413.087 173.036 410.463 174.04 407.928 173.491C401.824 169.051 396.449 163.687 392.001 157.595C391.446 155.06 392.457 152.446 394.559 150.93L408.426 140.168C410.086 139.102 412.607 139.525 414.591 141.196L424.354 150.939C426.033 152.925 426.456 155.44 425.384 157.092ZM414.173 140.778L414.784 134.892L414.173 140.778ZM417.107 143.707L419.943 139.121L417.107 143.707ZM420.625 147.217L425.511 144.678L420.625 147.217ZM423.559 150.146L429.748 149.827L423.559 150.146ZM430.453 150.878C425.859 144.612 420.3 139.065 414.022 134.479L413.726 130.091C422.083 135.624 429.306 142.834 434.85 151.174L430.453 150.878Z" fill="white"/>
<path d="M414.173 140.778L414.784 134.892M417.107 143.707L419.943 139.121M420.625 147.217L425.511 144.678M423.559 150.146L429.748 149.827M425.384 157.092L414.601 170.933C413.087 173.036 410.463 174.04 407.928 173.491C401.824 169.051 396.449 163.687 392.001 157.595C391.446 155.06 392.457 152.446 394.559 150.93L408.426 140.168C410.086 139.102 412.607 139.525 414.591 141.196L424.354 150.939C426.033 152.925 426.456 155.44 425.384 157.092ZM430.453 150.878C425.859 144.612 420.3 139.065 414.022 134.479L413.726 130.091C422.083 135.624 429.306 142.834 434.85 151.174L430.453 150.878Z" stroke="black" stroke-miterlimit="10" stroke-linejoin="round"/>
<path d="M459.159 190.876L448.371 204.712C446.857 206.815 444.233 207.819 441.699 207.27C435.595 202.83 430.22 197.465 425.771 191.373C425.221 188.843 426.227 186.224 428.334 184.713L442.197 173.946C443.852 172.886 446.378 173.303 448.357 174.979L458.124 184.727C459.803 186.703 460.222 189.223 459.159 190.876ZM447.939 174.561L448.555 168.671L447.939 174.561ZM450.873 177.49L453.713 172.9L450.873 177.49ZM454.391 181.001L459.281 178.457L454.391 181.001ZM457.325 183.929L463.518 183.605L457.325 183.929ZM464.224 184.657C459.634 178.396 454.071 172.843 447.793 168.258L447.497 163.869C455.853 169.403 463.076 176.612 468.62 184.952L464.224 184.657Z" fill="white"/>
<path d="M447.939 174.561L448.555 168.671M450.873 177.49L453.713 172.9M454.391 181.001L459.281 178.457M457.325 183.929L463.518 183.605M459.159 190.876L448.371 204.712C446.857 206.815 444.233 207.819 441.699 207.27C435.595 202.83 430.22 197.465 425.771 191.373C425.221 188.843 426.227 186.224 428.334 184.713L442.197 173.946C443.852 172.886 446.378 173.303 448.357 174.979L458.124 184.727C459.803 186.703 460.222 189.223 459.159 190.876ZM464.224 184.657C459.634 178.396 454.071 172.843 447.793 168.258L447.497 163.869C455.853 169.403 463.076 176.612 468.62 184.952L464.224 184.657Z" stroke="black" stroke-miterlimit="10" stroke-linejoin="round"/>
<path d="M423.754 175.067L389.896 141.274L371.086 160.048L404.944 193.841L423.754 175.067Z" fill="white" stroke="black"/>
<path d="M393.658 145.029L389.896 141.274L387.262 143.902L391.024 147.657L393.658 145.029Z" stroke="black"/>
<path d="M377.481 161.174L373.719 157.419L371.086 160.048L374.848 163.802L377.481 161.174Z" stroke="black"/>
<path d="M423.749 175.062L419.987 171.307L417.354 173.936L421.116 177.69L423.749 175.062Z" stroke="black"/>
<path d="M407.573 191.208L403.811 187.453L401.177 190.081L404.939 193.836L407.573 191.208Z" stroke="black"/>
<path d="M457.6 208.841L423.741 175.048L404.931 193.822L438.79 227.614L457.6 208.841Z" fill="white" stroke="black"/>
<path d="M427.503 178.802L423.741 175.048L421.108 177.676L424.87 181.431L427.503 178.802Z" stroke="black"/>
<path d="M411.327 194.948L407.565 191.193L404.931 193.822L408.693 197.576L411.327 194.948Z" stroke="black"/>
<path d="M457.595 208.836L453.833 205.081L451.2 207.709L454.962 211.464L457.595 208.836Z" stroke="black"/>
<path d="M441.418 224.981L437.656 221.227L435.023 223.855L438.785 227.61L441.418 224.981Z" stroke="black"/>
</svg>
