<svg width="544" height="456" viewBox="0 0 544 456" fill="none" xmlns="http://www.w3.org/2000/svg">
<g clip-path="url(#clip0_1865_459)">
<rect width="544" height="456" fill="white"/>
<path d="M0.33252 405.223V0.331848H543.634V405.223H536.984V6.9694H6.98289V405.223H0.33252Z" fill="black" stroke="black" stroke-miterlimit="10"/>
<path d="M370.093 398.585H0.33252V405.223H370.093V398.585Z" fill="black" stroke="black"/>
<path d="M543.634 398.585H522.386V405.223H543.634V398.585Z" fill="black" stroke="black"/>
<path d="M423.296 398.585H370.093V401.904H423.296V398.585Z" fill="white" stroke="black"/>
<path d="M423.296 401.904C423.296 431.229 399.474 455.004 370.093 455.004V401.904" stroke="black" stroke-miterlimit="10"/>
<path d="M522.386 398.585H455.883V405.223H522.386V398.585Z" fill="white" stroke="black"/>
<path d="M489.134 401.904H455.883V402.568H489.134V401.904Z" fill="white" stroke="black"/>
<path d="M505.76 401.24H472.509V401.904H505.76V401.24Z" fill="white" stroke="black"/>
<path d="M455.883 398.585H423.296V405.223H455.883V398.585Z" fill="black" stroke="black"/>
<path d="M427.951 6.96942H361.448V0.331867H427.951V6.96942Z" fill="white" stroke="black"/>
<path d="M361.448 3.65063H427.951" stroke="black" stroke-miterlimit="10"/>
<path d="M145.976 6.97607H79.4719V0.33852H145.976V6.97607Z" fill="white" stroke="black"/>
<path d="M79.4719 3.65729H145.976" stroke="black" stroke-miterlimit="10"/>
<path d="M216.469 6.97607H149.966V0.33852H216.469V6.97607Z" fill="white" stroke="black"/>
<path d="M149.966 3.65729H216.469" stroke="black" stroke-miterlimit="10"/>
<path d="M286.963 6.97607H220.46V0.33852H286.963V6.97607Z" fill="white" stroke="black"/>
<path d="M220.46 3.65729H286.963" stroke="black" stroke-miterlimit="10"/>
<path d="M357.457 6.97607H290.954V0.33852H357.457V6.97607Z" fill="white" stroke="black"/>
<path d="M290.954 3.65729H357.457" stroke="black" stroke-miterlimit="10"/>
<path d="M498.445 6.96942H431.941V0.331867H498.445V6.96942Z" fill="white" stroke="black"/>
<path d="M431.941 3.65063H498.445" stroke="black" stroke-miterlimit="10"/>
<path d="M52.1541 184.979L68.1348 197.381C70.5571 199.128 71.7167 202.146 71.0827 205.061C65.9563 212.082 59.7624 218.264 52.7285 223.38C49.8076 224.013 46.7838 222.856 45.0389 220.433L32.6131 204.483C31.3775 202.579 31.8652 199.68 33.7944 197.397L45.0497 186.164C47.3366 184.238 50.2411 183.752 52.1541 184.979ZM33.3121 197.879L26.5167 197.176ZM36.6936 194.504L31.3992 191.243ZM40.747 190.458L37.8208 184.833ZM44.1285 187.083L43.76 179.966ZM44.9739 179.154C37.7449 184.433 31.3342 190.831 26.0452 198.047L20.973 198.393C27.3621 188.782 35.6911 180.469 45.3207 174.092L44.9739 179.154Z" fill="white"/>
<path d="M33.3121 197.879L26.5167 197.176M36.6936 194.504L31.3992 191.243M40.747 190.458L37.8208 184.833M44.1285 187.083L43.76 179.966M52.1541 184.979L68.1348 197.381C70.5571 199.128 71.7167 202.146 71.0827 205.061C65.9563 212.082 59.7624 218.264 52.7285 223.38C49.8076 224.013 46.7838 222.856 45.0389 220.433L32.6131 204.483C31.3775 202.579 31.8652 199.68 33.7944 197.397L45.0497 186.164C47.3366 184.238 50.2411 183.752 52.1541 184.979ZM44.9739 179.154C37.7449 184.433 31.3342 190.831 26.0452 198.047L20.973 198.393C27.3621 188.782 35.6911 180.469 45.3207 174.092L44.9739 179.154Z" stroke="black" stroke-miterlimit="10" stroke-linejoin="round"/>
<path d="M91.1542 146.054L107.135 158.456C109.557 160.203 110.717 163.21 110.088 166.131C104.956 173.157 98.7625 179.339 91.7286 184.455C88.8023 185.083 85.7839 183.931 84.039 181.507L71.6132 165.558C70.3831 163.648 70.8654 160.755 72.8 158.467L84.0499 147.239C86.3367 145.313 89.2413 144.827 91.1542 146.054ZM72.3123 158.954L65.5168 158.251ZM75.6937 155.579L70.3994 152.317ZM79.7526 151.528L76.8209 145.908ZM83.134 148.153L82.7601 141.04ZM83.974 140.229C76.745 145.508 70.3343 151.906 65.0454 159.121L59.9677 159.462C66.3622 149.856 74.6912 141.543 84.3154 135.161L83.974 140.229Z" fill="white"/>
<path d="M72.3123 158.954L65.5168 158.251M75.6937 155.579L70.3994 152.317M79.7526 151.528L76.8209 145.908M83.134 148.153L82.7601 141.04M91.1542 146.054L107.135 158.456C109.557 160.203 110.717 163.21 110.088 166.131C104.956 173.157 98.7625 179.339 91.7286 184.455C88.8023 185.083 85.7839 183.931 84.039 181.507L71.6132 165.558C70.3831 163.648 70.8654 160.755 72.8 158.467L84.0499 147.239C86.3367 145.313 89.2413 144.827 91.1542 146.054ZM83.974 140.229C76.745 145.508 70.3343 151.906 65.0454 159.121L59.9677 159.462C66.3622 149.856 74.6912 141.543 84.3154 135.161L83.974 140.229Z" stroke="black" stroke-miterlimit="10" stroke-linejoin="round"/>
<path d="M72.8609 186.892L33.844 225.834L55.5201 247.469L94.537 208.527L72.8609 186.892Z" fill="white" stroke="black"/>
<path d="M38.1792 221.507L33.844 225.834L36.8786 228.863L41.2139 224.536L38.1792 221.507Z" stroke="black"/>
<path d="M56.8208 240.113L52.4856 244.44L55.5202 247.468L59.8554 243.142L56.8208 240.113Z" stroke="black"/>
<path d="M72.8555 186.898L68.5203 191.225L71.5549 194.253L75.8901 189.927L72.8555 186.898Z" stroke="black"/>
<path d="M91.4968 205.503L87.1616 209.83L90.1963 212.859L94.5315 208.532L91.4968 205.503Z" stroke="black"/>
<path d="M111.946 147.967L72.9287 186.909L94.6048 208.543L133.622 169.601L111.946 147.967Z" fill="white" stroke="black"/>
<path d="M77.2639 182.582L72.9287 186.909L75.9634 189.938L80.2986 185.611L77.2639 182.582Z" stroke="black"/>
<path d="M95.9055 201.188L91.5703 205.514L94.605 208.543L98.9402 204.216L95.9055 201.188Z" stroke="black"/>
<path d="M111.94 147.973L107.605 152.299L110.64 155.328L114.975 151.001L111.94 147.973Z" stroke="black"/>
<path d="M130.582 166.578L126.247 170.905L129.281 173.934L133.616 169.607L130.582 166.578Z" stroke="black"/>
<path d="M236.487 248.5L256.573 245.991C259.524 245.51 262.482 246.825 264.099 249.334C265.448 257.916 265.448 266.659 264.099 275.241C262.482 277.757 259.524 279.065 256.573 278.591L236.487 276.082C234.264 275.6 232.555 273.206 232.303 270.231V254.352C232.555 251.369 234.264 248.974 236.487 248.5ZM232.303 270.911L226.999 275.21ZM232.303 266.139L226.248 267.569ZM232.303 260.417L226.248 258.513ZM232.303 255.644L226.999 250.871ZM227.283 249.441C225.911 258.283 225.911 267.324 227.283 276.166L223.941 279.983C221.65 268.678 221.65 256.929 223.941 245.624L227.283 249.441Z" fill="white"/>
<path d="M232.303 270.911L226.999 275.21M232.303 266.139L226.248 267.569M232.303 260.417L226.248 258.513M232.303 255.644L226.999 250.871M236.487 248.5L256.573 245.991C259.524 245.51 262.482 246.825 264.099 249.334C265.448 257.916 265.448 266.659 264.099 275.241C262.482 277.757 259.524 279.065 256.573 278.591L236.487 276.082C234.264 275.6 232.555 273.206 232.303 270.231V254.352C232.555 251.369 234.264 248.974 236.487 248.5ZM227.283 249.441C225.911 258.283 225.911 267.324 227.283 276.166L223.941 279.983C221.65 268.678 221.65 256.929 223.941 245.624L227.283 249.441Z" stroke="black" stroke-miterlimit="10" stroke-linejoin="round"/>
<path d="M236.487 193.352L256.565 190.843C259.516 190.361 262.474 191.677 264.099 194.186C265.448 202.768 265.448 211.51 264.099 220.092C262.474 222.609 259.516 223.917 256.565 223.443L236.487 220.934C234.264 220.452 232.555 218.058 232.302 215.082V199.203C232.555 196.22 234.264 193.826 236.487 193.352ZM232.302 215.763L226.999 220.062ZM232.302 210.99L226.24 212.421ZM232.302 205.269L226.24 203.364ZM232.302 200.496L226.999 195.723ZM227.283 194.293C225.903 203.135 225.903 212.176 227.283 221.018L223.934 224.835C221.642 213.53 221.642 201.781 223.934 190.476L227.283 194.293Z" fill="white"/>
<path d="M232.302 215.763L226.999 220.062M232.302 210.99L226.24 212.421M232.302 205.269L226.24 203.364M232.302 200.496L226.999 195.723M236.487 193.352L256.565 190.843C259.516 190.361 262.474 191.677 264.099 194.186C265.448 202.768 265.448 211.51 264.099 220.092C262.474 222.609 259.516 223.917 256.565 223.443L236.487 220.934C234.264 220.452 232.555 218.058 232.302 215.082V199.203C232.555 196.22 234.264 193.826 236.487 193.352ZM227.283 194.293C225.903 203.135 225.903 212.176 227.283 221.018L223.934 224.835C221.642 213.53 221.642 201.781 223.934 190.476L227.283 194.293Z" stroke="black" stroke-miterlimit="10" stroke-linejoin="round"/>
<path d="M252.519 235.207V290.279H283.174V235.207H252.519Z" fill="white" stroke="black"/>
<path d="M252.519 284.159V290.279H256.811V284.159H252.519Z" stroke="black"/>
<path d="M278.882 284.159V290.279H283.174V284.159H278.882Z" stroke="black"/>
<path d="M252.519 235.214V241.333H256.811V235.214H252.519Z" stroke="black"/>
<path d="M278.882 235.214V241.333H283.174V235.214H278.882Z" stroke="black"/>
<path d="M252.519 180.135V235.207H283.174V180.135H252.519Z" fill="white" stroke="black"/>
<path d="M252.519 229.087V235.207H256.811V229.087H252.519Z" stroke="black"/>
<path d="M278.882 229.087V235.207H283.174V229.087H278.882Z" stroke="black"/>
<path d="M252.519 180.142V186.261H256.811V180.142H252.519Z" stroke="black"/>
<path d="M278.882 180.142V186.261H283.174V180.142H278.882Z" stroke="black"/>
<path d="M330.895 221.852L310.817 224.361C307.866 224.835 304.908 223.527 303.283 221.018C301.934 212.428 301.934 203.693 303.283 195.104C304.908 192.595 307.866 191.287 310.817 191.761L330.895 194.27C333.118 194.752 334.827 197.138 335.08 200.121V216C334.827 218.983 333.118 221.37 330.895 221.852ZM335.08 199.433L340.383 195.142ZM335.08 204.206L341.142 202.775ZM335.08 209.935L341.142 211.839ZM335.08 214.708L340.383 219.481ZM340.099 220.911C341.479 212.069 341.479 203.02 340.099 194.186L343.448 190.369C345.74 201.674 345.74 213.423 343.448 224.728L340.099 220.911Z" fill="white"/>
<path d="M335.08 199.433L340.383 195.142M335.08 204.206L341.142 202.775M335.08 209.935L341.142 211.839M335.08 214.708L340.383 219.481M330.895 221.852L310.817 224.361C307.866 224.835 304.908 223.527 303.283 221.018C301.934 212.428 301.934 203.693 303.283 195.104C304.908 192.595 307.866 191.287 310.817 191.761L330.895 194.27C333.118 194.752 334.827 197.138 335.08 200.121V216C334.827 218.983 333.118 221.37 330.895 221.852ZM340.099 220.911C341.479 212.069 341.479 203.02 340.099 194.186L343.448 190.369C345.74 201.674 345.74 213.423 343.448 224.728L340.099 220.911Z" stroke="black" stroke-miterlimit="10" stroke-linejoin="round"/>
<path d="M330.895 277L310.809 279.509C307.858 279.983 304.9 278.675 303.283 276.166C301.934 267.577 301.934 258.842 303.283 250.252C304.9 247.743 307.858 246.435 310.809 246.909L330.895 249.418C333.118 249.9 334.827 252.286 335.08 255.27V271.149C334.827 274.132 333.118 276.518 330.895 277ZM335.08 254.581L340.383 250.29ZM335.08 259.354L341.134 257.924ZM335.08 265.083L341.134 266.988ZM335.08 269.856L340.383 274.629ZM340.099 276.059C341.471 267.217 341.471 258.168 340.099 249.334L343.441 245.517C345.732 256.822 345.732 268.571 343.441 279.876L340.099 276.059Z" fill="white"/>
<path d="M335.08 254.581L340.383 250.29M335.08 259.354L341.134 257.924M335.08 265.083L341.134 266.988M335.08 269.856L340.383 274.629M330.895 277L310.809 279.509C307.858 279.983 304.9 278.675 303.283 276.166C301.934 267.577 301.934 258.842 303.283 250.252C304.9 247.743 307.858 246.435 310.809 246.909L330.895 249.418C333.118 249.9 334.827 252.286 335.08 255.27V271.149C334.827 274.132 333.118 276.518 330.895 277ZM340.099 276.059C341.471 267.217 341.471 258.168 340.099 249.334L343.441 245.517C345.732 256.822 345.732 268.571 343.441 279.876L340.099 276.059Z" stroke="black" stroke-miterlimit="10" stroke-linejoin="round"/>
<path d="M314.863 235.214V180.142H284.209V235.214H314.863Z" fill="white" stroke="black"/>
<path d="M314.863 186.261V180.142H310.572V186.261H314.863Z" stroke="black"/>
<path d="M288.5 186.261V180.142H284.208V186.261H288.5Z" stroke="black"/>
<path d="M314.863 235.214V229.095H310.572V235.214H314.863Z" stroke="black"/>
<path d="M288.5 235.214V229.095H284.208V235.214H288.5Z" stroke="black"/>
<path d="M314.863 290.286V235.214H284.209V290.286H314.863Z" fill="white" stroke="black"/>
<path d="M314.863 241.333V235.214H310.572V241.333H314.863Z" stroke="black"/>
<path d="M288.5 241.333V235.214H284.208V241.333H288.5Z" stroke="black"/>
<path d="M314.863 290.286V284.167H310.572V290.286H314.863Z" stroke="black"/>
<path d="M288.5 290.286V284.167H284.208V290.286H288.5Z" stroke="black"/>
<path d="M236.487 305.599L256.566 303.091C259.524 302.609 262.475 303.924 264.099 306.433C265.448 315.015 265.448 323.758 264.099 332.347C262.475 334.856 259.524 336.164 256.566 335.69L236.487 333.181C234.265 332.699 232.556 330.305 232.303 327.33V311.451C232.556 308.468 234.265 306.081 236.487 305.599ZM232.303 328.018L226.999 332.309ZM232.303 323.245L226.248 324.676ZM232.303 317.516L226.248 315.612ZM232.303 312.743L226.999 307.97ZM227.283 306.54C225.904 315.382 225.904 324.423 227.283 333.265L223.934 337.082C221.65 325.777 221.65 314.028 223.934 302.723L227.283 306.54Z" fill="white"/>
<path d="M232.303 328.018L226.999 332.309M232.303 323.245L226.248 324.676M232.303 317.516L226.248 315.612M232.303 312.743L226.999 307.97M236.487 305.599L256.566 303.091C259.524 302.609 262.475 303.924 264.099 306.433C265.448 315.015 265.448 323.758 264.099 332.347C262.475 334.856 259.524 336.164 256.566 335.69L236.487 333.181C234.265 332.699 232.556 330.305 232.303 327.33V311.451C232.556 308.468 234.265 306.081 236.487 305.599ZM227.283 306.54C225.904 315.382 225.904 324.423 227.283 333.265L223.934 337.082C221.65 325.777 221.65 314.028 223.934 302.723L227.283 306.54Z" stroke="black" stroke-miterlimit="10" stroke-linejoin="round"/>
<path d="M252.519 292.39V347.462H283.174V292.39H252.519Z" fill="white" stroke="black"/>
<path d="M252.519 341.343V347.462H256.811V341.343H252.519Z" stroke="black"/>
<path d="M278.882 341.343V347.462H283.174V341.343H278.882Z" stroke="black"/>
<path d="M252.519 292.39V298.509H256.811V292.39H252.519Z" stroke="black"/>
<path d="M278.882 292.39V298.509H283.174V292.39H278.882Z" stroke="black"/>
<path d="M330.895 334.099L310.816 336.608C307.858 337.082 304.908 335.774 303.283 333.265C301.934 324.676 301.934 315.933 303.283 307.351C304.908 304.842 307.858 303.526 310.816 304.008L330.895 306.517C333.117 306.999 334.826 309.385 335.079 312.369V328.248C334.826 331.223 333.117 333.617 330.895 334.099ZM335.079 311.68L340.383 307.381ZM335.079 316.453L341.134 315.023ZM335.079 322.182L341.134 324.087ZM335.079 326.955L340.383 331.728ZM340.099 333.151C341.479 324.316 341.479 315.267 340.099 306.433L343.448 302.609C345.732 313.921 345.732 325.67 343.448 336.975L340.099 333.151Z" fill="white"/>
<path d="M335.079 311.68L340.383 307.381M335.079 316.453L341.134 315.023M335.079 322.182L341.134 324.087M335.079 326.955L340.383 331.728M330.895 334.099L310.816 336.608C307.858 337.082 304.908 335.774 303.283 333.265C301.934 324.676 301.934 315.933 303.283 307.351C304.908 304.842 307.858 303.526 310.816 304.008L330.895 306.517C333.117 306.999 334.826 309.385 335.079 312.369V328.248C334.826 331.223 333.117 333.617 330.895 334.099ZM340.099 333.151C341.479 324.316 341.479 315.267 340.099 306.433L343.448 302.609C345.732 313.921 345.732 325.67 343.448 336.975L340.099 333.151Z" stroke="black" stroke-miterlimit="10" stroke-linejoin="round"/>
<path d="M314.863 347.462V292.39H284.209V347.462H314.863Z" fill="white" stroke="black"/>
<path d="M314.863 298.509V292.39H310.572V298.509H314.863Z" stroke="black"/>
<path d="M288.5 298.509V292.39H284.208V298.509H288.5Z" stroke="black"/>
<path d="M314.863 347.462V341.343H310.572V347.462H314.863Z" stroke="black"/>
<path d="M288.5 347.462V341.343H284.208V347.462H288.5Z" stroke="black"/>
<path d="M236.663 73.3943L256.742 70.8855C259.692 70.4036 262.65 71.7192 264.275 74.2281C265.624 82.8101 265.624 91.5528 264.275 100.142C262.65 102.651 259.692 103.959 256.742 103.485L236.663 100.976C234.441 100.494 232.732 98.1002 232.479 95.1248V79.2457C232.732 76.2627 234.441 73.8762 236.663 73.3943ZM232.479 95.8132L227.175 100.104ZM232.479 91.0403L226.417 92.463ZM232.479 85.3113L226.417 83.4067ZM232.479 80.5384L227.175 75.7655ZM227.459 74.3351C226.079 83.1773 226.079 92.2182 227.459 101.06L224.11 104.877C221.818 93.5721 221.818 81.8234 224.11 70.5184L227.459 74.3351Z" fill="white"/>
<path d="M232.479 95.8132L227.175 100.104M232.479 91.0403L226.417 92.463M232.479 85.3113L226.417 83.4067M232.479 80.5384L227.175 75.7655M236.663 73.3943L256.742 70.8855C259.692 70.4036 262.65 71.7192 264.275 74.2281C265.624 82.8101 265.624 91.5528 264.275 100.142C262.65 102.651 259.692 103.959 256.742 103.485L236.663 100.976C234.441 100.494 232.732 98.1002 232.479 95.1248V79.2457C232.732 76.2627 234.441 73.8762 236.663 73.3943ZM227.459 74.3351C226.079 83.1773 226.079 92.2182 227.459 101.06L224.11 104.877C221.818 93.5721 221.818 81.8234 224.11 70.5184L227.459 74.3351Z" stroke="black" stroke-miterlimit="10" stroke-linejoin="round"/>
<path d="M252.696 60.1006V115.173H283.35V60.1006H252.696Z" fill="white" stroke="black"/>
<path d="M252.696 109.053V115.173H256.987V109.053H252.696Z" stroke="black"/>
<path d="M279.059 109.053V115.173H283.35V109.053H279.059Z" stroke="black"/>
<path d="M252.696 60.1006V66.2197H256.987V60.1006H252.696Z" stroke="black"/>
<path d="M279.059 60.1006V66.2197H283.35V60.1006H279.059Z" stroke="black"/>
<path d="M330.037 101.887L309.958 104.395C307.008 104.877 304.05 103.562 302.425 101.053C301.076 92.4707 301.076 83.728 302.425 75.146C304.05 72.6371 307.008 71.3215 309.958 71.8034L330.037 74.3046C332.26 74.7865 333.969 77.1806 334.221 80.156V96.0427C333.969 99.0182 332.26 101.412 330.037 101.887ZM334.221 79.4753L339.525 75.1766ZM334.221 84.2482L340.283 82.8178ZM334.221 89.9695L340.283 91.8741ZM334.221 94.7424L339.525 99.5153ZM339.241 100.946C340.621 92.1112 340.621 83.0626 339.241 74.2205L342.59 70.4037C344.874 81.7087 344.874 93.4574 342.59 104.762L339.241 100.946Z" fill="white"/>
<path d="M334.221 79.4753L339.525 75.1766M334.221 84.2482L340.283 82.8178M334.221 89.9695L340.283 91.8741M334.221 94.7424L339.525 99.5153M330.037 101.887L309.958 104.395C307.008 104.877 304.05 103.562 302.425 101.053C301.076 92.4707 301.076 83.728 302.425 75.146C304.05 72.6371 307.008 71.3215 309.958 71.8034L330.037 74.3046C332.26 74.7865 333.969 77.1806 334.221 80.156V96.0427C333.969 99.0182 332.26 101.412 330.037 101.887ZM339.241 100.946C340.621 92.1112 340.621 83.0626 339.241 74.2205L342.59 70.4037C344.874 81.7087 344.874 93.4574 342.59 104.762L339.241 100.946Z" stroke="black" stroke-miterlimit="10" stroke-linejoin="round"/>
<path d="M314.005 115.165V60.093H283.35V115.165H314.005Z" fill="white" stroke="black"/>
<path d="M314.005 66.2121V60.093H309.713V66.2121H314.005Z" stroke="black"/>
<path d="M287.642 66.2121V60.093H283.35V66.2121H287.642Z" stroke="black"/>
<path d="M314.005 115.165V109.046H309.713V115.165H314.005Z" stroke="black"/>
<path d="M287.642 115.165V109.046H283.35V115.165H287.642Z" stroke="black"/>
<path d="M467.346 166.212L454.921 182.162C453.176 184.585 450.152 185.742 447.231 185.11C440.197 179.993 434.003 173.811 428.877 166.791C428.237 163.87 429.402 160.857 431.825 159.111L447.805 146.709C449.718 145.481 452.623 145.968 454.91 147.893L466.16 159.121C468.094 161.409 468.582 164.308 467.346 166.212ZM454.428 147.412L455.132 140.629ZM457.809 150.787L461.077 145.503ZM461.862 154.832L467.493 151.906ZM465.244 158.207L472.375 157.839ZM473.188 159.051C467.894 151.831 461.488 145.438 454.254 140.153L453.913 135.096C463.542 141.473 471.866 149.781 478.255 159.392L473.188 159.051Z" fill="white"/>
<path d="M454.428 147.412L455.132 140.629M457.809 150.787L461.077 145.503M461.862 154.832L467.493 151.906M465.244 158.207L472.375 157.839M467.346 166.212L454.921 182.162C453.176 184.585 450.152 185.742 447.231 185.11C440.197 179.993 434.003 173.811 428.877 166.791C428.237 163.87 429.402 160.857 431.825 159.111L447.805 146.709C449.718 145.481 452.623 145.968 454.91 147.893L466.16 159.121C468.094 161.409 468.582 164.308 467.346 166.212ZM473.188 159.051C467.894 151.831 461.488 145.438 454.254 140.153L453.913 135.096C463.542 141.473 471.866 149.781 478.255 159.392L473.188 159.051Z" stroke="black" stroke-miterlimit="10" stroke-linejoin="round"/>
<path d="M506.268 205.143L493.837 221.087C492.092 223.51 489.068 224.668 486.147 224.035C479.113 218.918 472.919 212.736 467.793 205.716C467.159 202.801 468.318 199.783 470.746 198.041L486.721 185.634C488.629 184.411 491.539 184.893 493.82 186.824L505.076 198.057C507.01 200.334 507.493 203.239 506.268 205.143ZM493.338 186.342L494.048 179.555ZM496.72 189.717L499.993 184.428ZM500.773 193.763L506.409 190.831ZM504.154 197.138L511.291 196.765ZM512.104 197.976C506.815 190.761 500.405 184.363 493.17 179.079L492.829 174.022C502.458 180.398 510.782 188.706 517.171 198.317L512.104 197.976Z" fill="white"/>
<path d="M493.338 186.342L494.048 179.555M496.72 189.717L499.993 184.428M500.773 193.763L506.409 190.831M504.154 197.138L511.291 196.765M506.268 205.143L493.837 221.087C492.092 223.51 489.068 224.668 486.147 224.035C479.113 218.918 472.919 212.736 467.793 205.716C467.159 202.801 468.318 199.783 470.746 198.041L486.721 185.634C488.629 184.411 491.539 184.893 493.82 186.824L505.076 198.057C507.01 200.334 507.493 203.239 506.268 205.143ZM512.104 197.976C506.815 190.761 500.405 184.363 493.17 179.079L492.829 174.022C502.458 180.398 510.782 188.706 517.171 198.317L512.104 197.976Z" stroke="black" stroke-miterlimit="10" stroke-linejoin="round"/>
<path d="M465.468 186.925L426.451 147.983L404.775 169.618L443.792 208.559L465.468 186.925Z" fill="white" stroke="black"/>
<path d="M430.787 152.31L426.451 147.983L423.417 151.012L427.752 155.339L430.787 152.31Z" stroke="black"/>
<path d="M412.145 170.916L407.81 166.589L404.775 169.618L409.111 173.944L412.145 170.916Z" stroke="black"/>
<path d="M465.463 186.92L461.128 182.593L458.093 185.622L462.428 189.948L465.463 186.92Z" stroke="black"/>
<path d="M446.822 205.525L442.486 201.198L439.452 204.227L443.787 208.554L446.822 205.525Z" stroke="black"/>
<path d="M504.471 225.845L465.454 186.903L443.778 208.537L482.795 247.479L504.471 225.845Z" fill="white" stroke="black"/>
<path d="M469.789 191.23L465.454 186.903L462.419 189.932L466.754 194.259L469.789 191.23Z" stroke="black"/>
<path d="M451.147 209.835L446.812 205.509L443.778 208.537L448.113 212.864L451.147 209.835Z" stroke="black"/>
<path d="M504.466 225.839L500.13 221.512L497.096 224.541L501.431 228.868L504.466 225.839Z" stroke="black"/>
<path d="M485.824 244.445L481.489 240.118L478.454 243.147L482.789 247.474L485.824 244.445Z" stroke="black"/>
<circle cx="64.1904" cy="217.18" r="13.8284" fill="#E7E7E7"/>
<circle cx="103.925" cy="177.717" r="13.8284" fill="#E7E7E7"/>
<circle cx="268.697" cy="86.5924" r="13.8284" fill="#E7E7E7"/>
<circle cx="268.697" cy="207.548" r="13.8284" fill="#E7E7E7"/>
<circle cx="268.697" cy="264.057" r="13.8284" fill="#E7E7E7"/>
<circle cx="268.697" cy="320.523" r="13.8284" fill="#E7E7E7"/>
<circle cx="298.677" cy="86.5924" r="13.8284" fill="#E7E7E7"/>
<circle cx="299.811" cy="264.057" r="13.8284" fill="#E7E7E7"/>
<circle cx="299.811" cy="207.548" r="13.8284" fill="#E7E7E7"/>
<circle cx="435.79" cy="178.782" r="13.8284" fill="#E7E7E7"/>
<circle cx="474.971" cy="217.962" r="13.8284" fill="#E7E7E7"/>
<circle cx="299.811" cy="320.523" r="13.8284" fill="#E7E7E7"/>
<path d="M58.6305 223.415C55.9125 223.415 54.1125 221.057 54.1125 216.449C54.1125 211.859 55.9125 209.609 58.6305 209.609C61.3305 209.609 63.1305 211.859 63.1305 216.449C63.1305 221.057 61.3305 223.415 58.6305 223.415ZM58.6305 221.345C59.7825 221.345 60.6285 220.193 60.6285 216.449C60.6285 212.723 59.7825 211.643 58.6305 211.643C57.4785 211.643 56.6145 212.723 56.6145 216.449C56.6145 220.193 57.4785 221.345 58.6305 221.345ZM65.3957 223.163V221.021H68.2757V212.597H65.8457V210.959C67.1957 210.707 68.0957 210.365 68.9597 209.843H70.9217V221.021H73.4237V223.163H65.3957Z" fill="#848484"/>
<path d="M98.4977 184.489C95.7797 184.489 93.9797 182.131 93.9797 177.523C93.9797 172.933 95.7797 170.683 98.4977 170.683C101.198 170.683 102.998 172.933 102.998 177.523C102.998 182.131 101.198 184.489 98.4977 184.489ZM98.4977 182.419C99.6497 182.419 100.496 181.267 100.496 177.523C100.496 173.797 99.6497 172.717 98.4977 172.717C97.3457 172.717 96.4817 173.797 96.4817 177.523C96.4817 181.267 97.3457 182.419 98.4977 182.419ZM104.561 184.237V182.725C108.197 179.467 110.321 176.965 110.321 174.913C110.321 173.581 109.619 172.753 108.341 172.753C107.351 172.753 106.577 173.383 105.893 174.139L104.435 172.699C105.659 171.385 106.865 170.683 108.683 170.683C111.185 170.683 112.877 172.285 112.877 174.769C112.877 177.199 110.861 179.791 108.431 182.167C109.097 182.095 109.979 182.005 110.609 182.005H113.489V184.237H104.561Z" fill="#848484"/>
<path d="M263.39 93.7113C260.672 93.7113 258.872 91.3533 258.872 86.7453C258.872 82.1553 260.672 79.9053 263.39 79.9053C266.09 79.9053 267.89 82.1553 267.89 86.7453C267.89 91.3533 266.09 93.7113 263.39 93.7113ZM263.39 91.6413C264.542 91.6413 265.388 90.4893 265.388 86.7453C265.388 83.0193 264.542 81.9393 263.39 81.9393C262.238 81.9393 261.374 83.0193 261.374 86.7453C261.374 90.4893 262.238 91.6413 263.39 91.6413ZM273.611 93.7113C271.505 93.7113 270.083 92.9373 269.147 91.8573L270.407 90.1833C271.199 90.9573 272.153 91.5693 273.359 91.5693C274.727 91.5693 275.645 90.8853 275.645 89.6973C275.645 88.3833 274.871 87.5733 271.973 87.5733V85.6653C274.421 85.6653 275.213 84.8373 275.213 83.6493C275.213 82.6053 274.565 81.9753 273.431 81.9753C272.477 81.9753 271.703 82.4253 270.911 83.1633L269.561 81.5253C270.713 80.5353 271.991 79.9053 273.539 79.9053C276.113 79.9053 277.859 81.1653 277.859 83.4513C277.859 84.8733 277.067 85.9353 275.645 86.4753V86.5653C277.157 86.9973 278.309 88.0953 278.309 89.8593C278.309 92.3073 276.167 93.7113 273.611 93.7113Z" fill="#848484"/>
<path d="M293.37 93.7113C290.652 93.7113 288.852 91.3533 288.852 86.7453C288.852 82.1553 290.652 79.9053 293.37 79.9053C296.07 79.9053 297.87 82.1553 297.87 86.7453C297.87 91.3533 296.07 93.7113 293.37 93.7113ZM293.37 91.6413C294.522 91.6413 295.368 90.4893 295.368 86.7453C295.368 83.0193 294.522 81.9393 293.37 81.9393C292.218 81.9393 291.354 83.0193 291.354 86.7453C291.354 90.4893 292.218 91.6413 293.37 91.6413ZM304.725 93.4593V85.2693C304.725 84.4953 304.797 83.2893 304.833 82.4973H304.761C304.419 83.2173 304.059 83.9553 303.681 84.6753L301.629 87.9873H308.775V90.0213H299.055V88.2033L304.005 80.1393H307.191V93.4593H304.725Z" fill="#848484"/>
<path d="M263.39 325.641C260.672 325.641 258.872 323.283 258.872 318.675C258.872 314.085 260.672 311.835 263.39 311.835C266.09 311.835 267.89 314.085 267.89 318.675C267.89 323.283 266.09 325.641 263.39 325.641ZM263.39 323.571C264.542 323.571 265.388 322.419 265.388 318.675C265.388 314.949 264.542 313.869 263.39 313.869C262.238 313.869 261.374 314.949 261.374 318.675C261.374 322.419 262.238 323.571 263.39 323.571ZM273.287 325.641C271.613 325.641 270.425 324.957 269.615 324.129L271.019 322.527C271.523 323.085 272.333 323.499 273.125 323.499C274.691 323.499 275.969 322.239 275.969 318.423C275.969 315.021 274.943 313.815 273.647 313.815C272.639 313.815 271.829 314.625 271.829 316.281C271.829 317.829 272.585 318.585 273.719 318.585C274.475 318.585 275.303 318.171 275.951 317.073L276.095 318.873C275.375 319.863 274.169 320.457 273.233 320.457C271.001 320.457 269.417 319.107 269.417 316.281C269.417 313.527 271.325 311.835 273.593 311.835C276.131 311.835 278.399 313.815 278.399 318.423C278.399 323.463 275.933 325.641 273.287 325.641Z" fill="#848484"/>
<path d="M290.652 325.389V323.247H293.532V314.823H291.102V313.185C292.452 312.933 293.352 312.591 294.216 312.069H296.178V323.247H298.68V325.389H290.652ZM305.121 325.641C302.403 325.641 300.603 323.283 300.603 318.675C300.603 314.085 302.403 311.835 305.121 311.835C307.821 311.835 309.621 314.085 309.621 318.675C309.621 323.283 307.821 325.641 305.121 325.641ZM305.121 323.571C306.273 323.571 307.119 322.419 307.119 318.675C307.119 314.949 306.273 313.869 305.121 313.869C303.969 313.869 303.105 314.949 303.105 318.675C303.105 322.419 303.969 323.571 305.121 323.571Z" fill="#848484"/>
<path d="M263.39 271.175C260.672 271.175 258.872 268.817 258.872 264.209C258.872 259.619 260.672 257.369 263.39 257.369C266.09 257.369 267.89 259.619 267.89 264.209C267.89 268.817 266.09 271.175 263.39 271.175ZM263.39 269.105C264.542 269.105 265.388 267.953 265.388 264.209C265.388 260.483 264.542 259.403 263.39 259.403C262.238 259.403 261.374 260.483 261.374 264.209C261.374 267.953 262.238 269.105 263.39 269.105ZM272.027 270.923C272.279 266.315 273.035 263.345 275.591 259.817H269.597V257.603H278.435V259.205C275.339 262.985 274.943 265.721 274.709 270.923H272.027Z" fill="#848484"/>
<path d="M294.504 271.175C291.786 271.175 289.986 268.817 289.986 264.209C289.986 259.619 291.786 257.369 294.504 257.369C297.204 257.369 299.004 259.619 299.004 264.209C299.004 268.817 297.204 271.175 294.504 271.175ZM294.504 269.105C295.656 269.105 296.502 267.953 296.502 264.209C296.502 260.483 295.656 259.403 294.504 259.403C293.352 259.403 292.488 260.483 292.488 264.209C292.488 267.953 293.352 269.105 294.504 269.105ZM305.103 271.175C302.547 271.175 300.657 269.717 300.657 267.629C300.657 265.919 301.701 264.785 302.925 264.137V264.065C301.917 263.327 301.161 262.301 301.161 260.897C301.161 258.755 302.871 257.387 305.193 257.387C307.551 257.387 309.063 258.791 309.063 260.915C309.063 262.247 308.217 263.345 307.353 263.975V264.065C308.577 264.731 309.585 265.793 309.585 267.629C309.585 269.645 307.785 271.175 305.103 271.175ZM305.949 263.327C306.597 262.643 306.903 261.887 306.903 261.095C306.903 259.997 306.237 259.241 305.139 259.241C304.221 259.241 303.501 259.835 303.501 260.897C303.501 262.139 304.545 262.769 305.949 263.327ZM305.157 269.303C306.309 269.303 307.119 268.673 307.119 267.521C307.119 266.135 305.877 265.577 304.167 264.857C303.429 265.433 302.925 266.333 302.925 267.323C302.925 268.529 303.915 269.303 305.157 269.303Z" fill="#848484"/>
<path d="M263.39 214.667C260.672 214.667 258.872 212.309 258.872 207.701C258.872 203.111 260.672 200.861 263.39 200.861C266.09 200.861 267.89 203.111 267.89 207.701C267.89 212.309 266.09 214.667 263.39 214.667ZM263.39 212.597C264.542 212.597 265.388 211.445 265.388 207.701C265.388 203.975 264.542 202.895 263.39 202.895C262.238 202.895 261.374 203.975 261.374 207.701C261.374 211.445 262.238 212.597 263.39 212.597ZM273.665 214.667C271.559 214.667 270.155 213.839 269.147 212.849L270.389 211.175C271.127 211.913 272.081 212.525 273.305 212.525C274.709 212.525 275.663 211.643 275.663 210.059C275.663 208.511 274.763 207.647 273.431 207.647C272.639 207.647 272.207 207.845 271.433 208.349L270.209 207.557L270.587 201.095H277.715V203.309H272.873L272.621 206.135C273.143 205.901 273.611 205.775 274.223 205.775C276.455 205.775 278.327 207.089 278.327 210.005C278.327 212.957 276.113 214.667 273.665 214.667Z" fill="#848484"/>
<path d="M294.504 214.667C291.786 214.667 289.986 212.309 289.986 207.701C289.986 203.111 291.786 200.861 294.504 200.861C297.204 200.861 299.004 203.111 299.004 207.701C299.004 212.309 297.204 214.667 294.504 214.667ZM294.504 212.597C295.656 212.597 296.502 211.445 296.502 207.701C296.502 203.975 295.656 202.895 294.504 202.895C293.352 202.895 292.488 203.975 292.488 207.701C292.488 211.445 293.352 212.597 294.504 212.597ZM305.481 214.667C302.961 214.667 300.693 212.633 300.693 207.935C300.693 202.985 303.159 200.861 305.859 200.861C307.479 200.861 308.667 201.527 309.477 202.373L308.055 203.939C307.605 203.417 306.777 202.985 306.021 202.985C304.401 202.985 303.123 204.227 303.123 207.935C303.123 211.391 304.131 212.669 305.445 212.669C306.435 212.669 307.245 211.841 307.245 210.221C307.245 208.637 306.489 207.917 305.355 207.917C304.617 207.917 303.771 208.313 303.105 209.411L302.997 207.611C303.699 206.621 304.941 206.045 305.841 206.045C308.073 206.045 309.675 207.359 309.675 210.221C309.675 212.957 307.749 214.667 305.481 214.667Z" fill="#848484"/>
<path d="M426.933 185.071V182.929H429.813V174.505H427.383V172.867C428.733 172.615 429.633 172.273 430.497 171.751H432.459V182.929H434.961V185.071H426.933ZM437.551 185.071V182.929H440.431V174.505H438.001V172.867C439.351 172.615 440.251 172.273 441.115 171.751H443.077V182.929H445.579V185.071H437.551Z" fill="#848484"/>
<path d="M465.936 223.991V221.849H468.816V213.425H466.386V211.787C467.736 211.535 468.636 211.193 469.5 210.671H471.462V221.849H473.964V223.991H465.936ZM475.851 223.991V222.479C479.487 219.221 481.611 216.719 481.611 214.667C481.611 213.335 480.909 212.507 479.631 212.507C478.641 212.507 477.867 213.137 477.183 213.893L475.725 212.453C476.949 211.139 478.155 210.437 479.973 210.437C482.475 210.437 484.167 212.039 484.167 214.523C484.167 216.953 482.151 219.545 479.721 221.921C480.387 221.849 481.269 221.759 481.899 221.759H484.779V223.991H475.851Z" fill="#848484"/>
</g>
<defs>
<clipPath id="clip0_1865_459">
<rect width="544" height="456" fill="white"/>
</clipPath>
</defs>
</svg>
